# xmcd
#
# Track frame offsets: 
#        150
#        10533
#        26361
#        38543
#        49705
#        57963
#        83608
#        114661
#        137180
#        146689
#        152910
#        183568
#        195080
#
# Disc length: 2717 seconds
#
# Revision: 1
# Processed by: cddbd v1.5.1PL2 Copyright (c) Steve Scherf et al.
# Submitted via: ExactAudioCopy v0.95b4
#
DISCID=9d0a9b0d
DTITLE=Andy Griffith - Andy Griffith: Absolutely The Best
DYEAR=2002
DGENRE=Comedy/Novelty
TTITLE0=The Andy Griffith Theme
TTITLE1=Make Yourself Comfortable
TTITLE2=The Crawdad Song
TTITLE3=The Midnight Special
TTITLE4=Flop-Eared Mule
TTITLE5=What It Was, Was Football (Parts I and II)
TTITLE6=Romeo And Juliet (Parts I and II)
TTITLE7=Andy And Cleopatra
TTITLE8=Sourwood Mountain
TTITLE9=Cindy
TTITLE10=North Carolina, My Home State
TTITLE11=Mama Guitar
TTITLE12=The Fishin' Hole
EXTD=
EXTT0=
EXTT1=
EXTT2=
EXTT3=
EXTT4=
EXTT5=
EXTT6=
EXTT7=
EXTT8=
EXTT9=
EXTT10=
EXTT11=
EXTT12=
PLAYORDER=
